<svg xmlns="http://www.w3.org/2000/svg" width="16" height="14" viewBox="0 0 12 10" fill="none">
    <path d="M6 0.625C4.26562 0.625 2.85469 1.77148 2.85469 3.2168C2.85469 3.53711 2.93672 3.88672 3.08437 4.20117H3.08203L3.09609 4.22461C3.10781 4.24609 3.11953 4.26758 3.13125 4.28906L6 9.375L8.85469 4.31445L8.86875 4.29102C8.88047 4.26953 8.89453 4.24805 8.90625 4.22461L8.91562 4.20312C9.06797 3.88867 9.14531 3.55664 9.14531 3.2207C9.14531 1.77148 7.73437 0.625 6 0.625ZM8.55703 4.08984L8.55234 4.09961C8.54531 4.11133 8.53828 4.125 8.53125 4.13672L8.50781 4.17773L6 8.61914L3.48984 4.17773L3.46875 4.13867C3.46172 4.12695 3.45469 4.11523 3.45 4.10352C3.31172 3.82031 3.23672 3.50586 3.23672 3.2168C3.23672 1.94727 4.47656 0.941406 6.00234 0.941406C7.52812 0.941406 8.76797 1.94531 8.76797 3.2168C8.76562 3.51367 8.69531 3.80664 8.55703 4.08984Z" fill="black"/>
    <path d="M6 1.875C5.17266 1.875 4.5 2.43555 4.5 3.125C4.5 3.81445 5.17266 4.375 6 4.375C6.82734 4.375 7.5 3.81445 7.5 3.125C7.5 2.43555 6.82734 1.875 6 1.875ZM6 4.04102C5.39297 4.04102 4.90078 3.63086 4.90078 3.125C4.90078 2.61914 5.39297 2.20898 6 2.20898C6.60703 2.20898 7.09922 2.61914 7.09922 3.125C7.09922 3.63086 6.60703 4.04102 6 4.04102Z" fill="black"/>
</svg>
