<svg xmlns="http://www.w3.org/2000/svg" width="14" height="14" viewBox="0 0 12 12" fill="none">
    <path fill-rule="evenodd" clip-rule="evenodd" d="M10.75 10.25H1.25C0.69775 10.25 0.25 9.80225 0.25 9.25V3.75C0.25 3.19775 0.69775 2.75 1.25 2.75H1.5C1.5 2.474 1.724 2.25 2 2.25H2.5C2.776 2.25 3 2.474 3 2.75H3.5C3.5 2.75 3.78125 2.71875 4 2.5L4.5 2C4.5 2 4.69525 1.75 5 1.75H7C7.328 1.75 7.5 2 7.5 2L8 2.5C8.21875 2.71875 8.5 2.75 8.5 2.75H10.75C11.3023 2.75 11.75 3.19775 11.75 3.75V9.25C11.75 9.80225 11.3023 10.25 10.75 10.25ZM11.25 3.75C11.25 3.474 11.026 3.25 10.75 3.25L8.44475 3.24675C8.3685 3.2385 7.9725 3.1795 7.6465 2.8535L7.114 2.321L7.088 2.28325C7.088 2.28325 7.049 2.25 7 2.25H5C4.96175 2.25 4.90625 2.2945 4.894 2.30775L4.87525 2.33175L4.3535 2.85325C4.02725 3.1795 3.63125 3.23825 3.55525 3.2465L2.5175 3.248C2.5115 3.2485 2.50575 3.25 2.5 3.25H2C1.9965 3.25 1.9935 3.249 1.99 3.249L1.25 3.25C0.974 3.25 0.75 3.474 0.75 3.75V9.25C0.75 9.526 0.974 9.75 1.25 9.75H10.75C11.026 9.75 11.25 9.526 11.25 9.25V3.75ZM6 9.25C4.48125 9.25 3.25 8.01875 3.25 6.5C3.25 4.98125 4.48125 3.75 6 3.75C7.51875 3.75 8.75 4.98125 8.75 6.5C8.75 8.01875 7.51875 9.25 6 9.25ZM6 4.25C4.75725 4.25 3.75 5.25725 3.75 6.5C3.75 7.74275 4.75725 8.75 6 8.75C7.24275 8.75 8.25 7.74275 8.25 6.5C8.25 5.25725 7.24275 4.25 6 4.25ZM6 7.75C5.3095 7.75 4.75 7.1905 4.75 6.5C4.75 5.8095 5.3095 5.25 6 5.25C6.6905 5.25 7.25 5.8095 7.25 6.5C7.25 7.1905 6.6905 7.75 6 7.75ZM6 5.75C5.586 5.75 5.25 6.086 5.25 6.5C5.25 6.91425 5.586 7.25 6 7.25C6.41425 7.25 6.75 6.91425 6.75 6.5C6.75 6.086 6.41425 5.75 6 5.75ZM2.5 4.75H1.5C1.36175 4.75 1.25 4.63825 1.25 4.5V4C1.25 3.862 1.36175 3.75 1.5 3.75H2.5C2.63825 3.75 2.75 3.862 2.75 4V4.5C2.75 4.63825 2.63825 4.75 2.5 4.75Z" fill="black"/>
</svg>
